<svg width="397" height="155" viewBox="0 0 397 155" fill="none" xmlns="http://www.w3.org/2000/svg">
<path d="M237.573 31.1299C237.573 20.3822 245.445 11.256 256.077 9.67857L293.608 4.10962" stroke="#2347FB" stroke-width="5.96983" stroke-miterlimit="10"></path>
<path d="M242.891 39.358C243.746 28.6969 252.171 20.2099 262.825 19.2769L293.608 16.5813" stroke="#2347FB" stroke-width="5.96983" stroke-miterlimit="10"></path>
<path fill-rule="evenodd" clip-rule="evenodd" d="M249.08 28.1511C253.614 28.1511 257.295 31.8317 257.295 36.366V53.655C257.295 57.0767 256.387 60.4567 254.571 63.3552C252.232 67.0777 248.058 71.6543 240.847 74.4626C237.847 75.6292 234.437 74.5401 232.596 71.9001L226.282 62.8562C226.196 62.929 210.69 76.0622 180.838 76.0623C141.984 76.0623 118.223 53.0359 107.302 38.9099C103.911 34.52 107.008 28.1571 112.552 28.157L112.547 28.1511H249.08ZM243.044 44.8513C240.204 44.8513 237.902 47.1533 237.902 49.9929C237.902 52.8325 240.204 55.1345 243.044 55.1345C245.883 55.1344 248.185 52.8324 248.185 49.9929C248.185 47.1533 245.883 44.8515 243.044 44.8513Z" fill="#2347FB"></path>
<path d="M182.306 60.6395L144.227 13.0716C143.361 11.9892 141.317 12.332 141.04 13.6008L127.66 71.5241C127.052 74.1581 124.226 76.0644 120.93 76.0644H104.038" stroke="#2347FB" stroke-width="7.02357" stroke-miterlimit="10"></path>
<path d="M137.456 29.1335L143.175 16.4087L157.722 31.2984L137.456 29.1335Z" fill="#2347FB"></path>
<path d="M205.909 59.4758L207.434 70.664C207.856 73.7576 210.498 76.064 213.62 76.064H227.198" stroke="#2347FB" stroke-width="7.02357"></path>
<path d="M39.7936 123.458H14.1995V148H2.01598V89.7996H43.475V99.9672H14.1995V113.202H39.7936V123.458ZM62.7384 139.585C69.6628 139.585 73.1689 135.203 73.1689 126.438C73.1689 117.673 69.6628 113.378 62.7384 113.378C55.8139 113.378 52.3079 117.673 52.3079 126.438C52.3079 135.203 55.8139 139.585 62.7384 139.585ZM62.7384 149.139C48.8018 149.139 40.5626 139.848 40.5626 126.438C40.5626 112.764 49.0648 103.736 62.7384 103.736C76.2367 103.736 84.6512 112.677 84.6512 126.438C84.6512 140.111 76.149 149.139 62.7384 149.139ZM125.853 148H115.072V141.952C112.091 146.861 107.621 149.139 101.661 149.139C93.0712 149.139 87.0232 142.741 87.0232 133.275V104.876H98.4179V131.522C98.4179 136.956 100.872 139.585 105.693 139.585C111.478 139.585 114.546 135.466 114.546 129.769V104.876H125.853V148ZM168.188 148H156.706V121.88C156.706 115.218 154.778 113.378 149.343 113.378C143.383 113.378 140.49 116.709 140.49 123.282V148H129.096V104.876H139.965V111.187C142.594 106.366 146.977 103.736 153.901 103.736C162.14 103.736 168.188 108.732 168.188 118.111V148ZM191.848 139.848C197.282 139.848 201.49 134.765 201.49 127.49C201.49 118.111 198.246 113.465 191.936 113.465C185.274 113.465 182.119 117.936 182.119 126.788C182.119 134.502 186.151 139.848 191.848 139.848ZM212.271 148H201.314L201.227 142.741C198.509 147.123 194.477 149.139 189.218 149.139C178.35 149.139 170.549 140.55 170.549 126C170.549 112.94 177.122 103.736 188.254 103.736C193.601 103.736 197.808 105.927 201.051 110.485V89.0984H212.271V148ZM241.672 131.609L241.76 126.876C240.62 128.016 238.604 128.629 234.397 129.418C227.911 130.645 225.807 132.486 225.807 136.167C225.807 139.41 227.736 140.988 231.329 140.988C237.202 140.988 241.584 136.693 241.672 131.609ZM253.154 148H242.549C242.198 146.948 241.935 145.458 241.847 144.143C239.13 147.123 234.572 149.139 228.787 149.139C218.97 149.139 214.413 144.319 214.413 137.307C214.413 124.86 222.739 123.458 234.222 121.88C239.919 121.091 241.497 119.952 241.497 116.971C241.497 114.167 238.692 112.501 234.222 112.501C229.05 112.501 226.947 115.043 226.421 118.9H215.815C215.99 109.959 220.899 103.736 234.748 103.736C248.421 103.736 253.154 109.872 253.154 120.74V148ZM280.881 130.82V119.601H291.487V131.872C291.487 140.988 286.228 149.139 274.044 149.139C261.422 149.139 256.426 141.076 256.426 131.785V93.218H267.646V104.876H291.487V112.94H267.646V130.645C267.646 136.079 269.574 139.235 274.219 139.235C278.777 139.235 280.881 136.167 280.881 130.82ZM306.048 148H294.653V104.876H306.048V148ZM306.048 99.7042H294.653V89.0984H306.048V99.7042ZM330.711 139.585C337.636 139.585 341.142 135.203 341.142 126.438C341.142 117.673 337.636 113.378 330.711 113.378C323.787 113.378 320.281 117.673 320.281 126.438C320.281 135.203 323.787 139.585 330.711 139.585ZM330.711 149.139C316.775 149.139 308.536 139.848 308.536 126.438C308.536 112.764 317.038 103.736 330.711 103.736C344.21 103.736 352.624 112.677 352.624 126.438C352.624 140.111 344.122 149.139 330.711 149.139ZM394.089 148H382.606V121.88C382.606 115.218 380.678 113.378 375.244 113.378C369.283 113.378 366.391 116.709 366.391 123.282V148H354.996V104.876H365.865V111.187C368.494 106.366 372.877 103.736 379.801 103.736C388.041 103.736 394.089 108.732 394.089 118.111V148Z" fill="#2347FB"></path>
<path d="M13.849 68.3593H23.9289C34.5347 68.3593 39.0926 61.6978 39.0926 48.5501C39.0926 35.4024 34.5347 30.1434 22.8771 30.1434H13.849V68.3593ZM26.3831 78.2638H2.01611V20.0635H24.5425C40.3197 20.0635 51.539 30.8446 51.539 48.5501C51.539 66.2556 41.4591 78.2638 26.3831 78.2638Z" fill="#2347FB"></path>
<path d="M64.5484 48.6663H82.1663C82.1663 44.2675 78.1343 42.4208 73.6641 42.4208C69.1062 42.4208 64.5484 45.0026 64.5484 48.6663ZM93.9115 55.8537H64.1978C64.5484 62.3399 64.5484 70.3753 73.8394 70.3753C81.5527 70.3753 81.5527 63.7465 81.5527 60.164H93.298C93.9115 72.4447 83.5687 79.4033 74.3653 79.4033C59.9905 79.4033 52.8031 71.5147 52.8031 55.9128C52.8031 42.5898 60.4288 34 73.6641 34C86.8994 34 93.9115 38.7617 93.9115 55.8537ZM85.497 32.1152L74.2206 28.3551L61.8312 32.1152L57.7992 27.645L69.575 22.4825H78.8661L89.529 27.645L85.497 32.1152Z" fill="#2347FB"></path>
<path d="M83.452 15.7207L62.8803 20.7439L61.5636 15.2877L81.5681 8.84571L83.452 15.7207Z" fill="#2347FB"></path>
</svg>